<?xml version="1.0" encoding="utf-8"?>
<!-- Generator: Adobe Illustrator 19.0.0, SVG Export Plug-In . SVG Version: 6.00 Build 0)  -->
<svg version="1.1" id="Layer_1" xmlns="http://www.w3.org/2000/svg" xmlns:xlink="http://www.w3.org/1999/xlink" x="0px" y="0px"
	 viewBox="0 0 120 120" style="enable-background:new 0 0 120 120;" xml:space="preserve">
<style type="text/css">
	.st0{fill:#45C8F5;stroke:#FFFFFF;stroke-miterlimit:10; stroke-width:3;}
	.st1{fill:#FFFFFF;}
</style>
<circle id="XMLID_1_" class="st0" cx="60" cy="60" r="58.5"/>
<g id="XMLID_3_">
</g>
<title>Twitter-black</title>
<desc>Created with Sketch.</desc>
<g id="Icons">
	<g id="Black" transform="translate(-300.000000, -164.000000)">
		<path id="Twitter" class="st1" d="M401.1,198.7c-3,1.4-6.3,2.3-9.7,2.7c3.5-2.1,6.2-5.5,7.4-9.6c-3.3,2-6.9,3.4-10.7,4.2
			c-3.1-3.4-7.4-5.5-12.3-5.5c-9.3,0-16.8,7.7-16.8,17.3c0,1.4,0.1,2.7,0.4,3.9c-14-0.7-26.4-7.6-34.7-18.1
			c-1.5,2.6-2.3,5.5-2.3,8.7c0,6,3,11.3,7.5,14.4c-2.8-0.1-5.4-0.9-7.6-2.2v0.2c0,8.4,5.8,15.4,13.5,16.9c-1.4,0.4-2.9,0.6-4.4,0.6
			c-1.1,0-2.1-0.1-3.2-0.3c2.1,6.9,8.4,11.9,15.7,12c-5.8,4.6-13,7.4-20.9,7.4c-1.4,0-2.7-0.1-4-0.2c7.5,4.9,16.3,7.8,25.8,7.8
			c31,0,47.9-26.3,47.9-49.2c0-0.8,0-1.5,0-2.2C396,205.2,398.8,202.1,401.1,198.7"/>
	</g>
</g>
<g id="XMLID_2_">
</g>
<g id="XMLID_4_">
</g>
<g id="XMLID_5_">
</g>
<g id="XMLID_6_">
</g>
<g id="XMLID_7_">
</g>
<g id="XMLID_8_">
</g>
</svg>
